<svg width="196" height="163" viewBox="0 0 196 163" fill="none" xmlns="http://www.w3.org/2000/svg">
<path d="M0 146.7C0 155.702 7.29783 163 16.3 163H179.3C188.302 163 195.6 155.702 195.6 146.7C195.6 137.697 188.302 130.4 179.3 130.4H16.3C7.29783 130.4 0 137.697 0 146.7Z" fill="#F8E3CA"/>
<path d="M32.6001 81.4999C32.6001 90.5024 39.8979 97.7999 48.9001 97.7999H146.7C155.703 97.7999 163 90.5024 163 81.4999C163 72.4975 155.703 65.2 146.7 65.2H48.9001C39.8979 65.2 32.6001 72.4975 32.6001 81.4999Z" fill="#F8E3CA"/>
<path d="M81.5002 32.6C72.4977 32.6 65.2002 25.3023 65.2002 16.3C65.2002 7.29767 72.4977 0 81.5002 0H114.1C123.103 0 130.4 7.29767 130.4 16.3C130.4 25.3023 123.103 32.6 114.1 32.6H81.5002Z" fill="#F8E3CA"/>
</svg>
